<svg xmlns="http://www.w3.org/2000/svg" viewBox="0 0 800 600">
  <defs>
    <linearGradient id="bg" x1="0%" y1="0%" x2="100%" y2="100%">
      <stop offset="0%" style="stop-color:#1a1a2e"/>
      <stop offset="100%" style="stop-color:#16213e"/>
    </linearGradient>
    <linearGradient id="accent" x1="0%" y1="0%" x2="100%" y2="0%">
      <stop offset="0%" style="stop-color:#7c3aed"/>
      <stop offset="100%" style="stop-color:#06b6d4"/>
    </linearGradient>
  </defs>
  <rect width="800" height="600" fill="url(#bg)"/>
  <circle cx="120" cy="300" r="50" fill="#7c3aed" opacity="0.3"/>
  <circle cx="120" cy="300" r="30" fill="#7c3aed"/>
  <circle cx="280" cy="300" r="50" fill="#06b6d4" opacity="0.3"/>
  <circle cx="280" cy="300" r="30" fill="#06b6d4"/>
  <circle cx="400" cy="180" r="60" fill="#ec4899" opacity="0.3"/>
  <circle cx="400" cy="180" r="40" fill="#ec4899"/>
  <circle cx="520" cy="300" r="50" fill="#10b981" opacity="0.3"/>
  <circle cx="520" cy="300" r="30" fill="#10b981"/>
  <circle cx="680" cy="300" r="50" fill="#f59e0b" opacity="0.3"/>
  <circle cx="680" cy="300" r="30" fill="#f59e0b"/>
  <line x1="150" y1="285" x2="250" y2="285" stroke="#7c3aed" stroke-width="2" stroke-dasharray="5,5"/>
  <line x1="310" y1="280" x2="365" y2="220" stroke="#06b6d4" stroke-width="2" stroke-dasharray="5,5"/>
  <line x1="435" y1="220" x2="490" y2="280" stroke="#ec4899" stroke-width="2" stroke-dasharray="5,5"/>
  <line x1="550" y1="285" x2="650" y2="285" stroke="#10b981" stroke-width="2" stroke-dasharray="5,5"/>
  <rect x="200" y="400" width="400" height="100" rx="8" fill="#1e1e3f" stroke="url(#accent)" stroke-width="2"/>
  <text x="400" y="440" font-family="system-ui" font-size="16" fill="white" text-anchor="middle">Our diverse team brings expertise from</text>
  <text x="400" y="470" font-family="system-ui" font-size="16" fill="#94a3b8" text-anchor="middle">Product, Engineering, Design & AI</text>
  <text x="400" y="560" font-family="system-ui" font-size="24" fill="white" text-anchor="middle" font-weight="bold">Meet Our Team</text>
</svg>
