<svg xmlns="http://www.w3.org/2000/svg" viewBox="0 0 800 600">
  <defs>
    <linearGradient id="bg" x1="0%" y1="0%" x2="100%" y2="100%">
      <stop offset="0%" style="stop-color:#1a1a2e"/>
      <stop offset="100%" style="stop-color:#16213e"/>
    </linearGradient>
    <linearGradient id="accent" x1="0%" y1="0%" x2="100%" y2="0%">
      <stop offset="0%" style="stop-color:#7c3aed"/>
      <stop offset="100%" style="stop-color:#10b981"/>
    </linearGradient>
  </defs>
  <rect width="800" height="600" fill="url(#bg)"/>
  <circle cx="400" cy="180" r="70" fill="url(#accent)" opacity="0.2"/>
  <path d="M360 180 L380 200 L440 140" fill="none" stroke="#10b981" stroke-width="8" stroke-linecap="round"/>
  <rect x="150" y="300" width="200" height="120" rx="8" fill="#1e1e3f" stroke="#10b981" stroke-width="2"/>
  <text x="250" y="330" font-family="system-ui" font-size="14" fill="#10b981" text-anchor="middle" font-weight="bold">+150%</text>
  <text x="250" y="355" font-family="system-ui" font-size="12" fill="#94a3b8" text-anchor="middle">Productivity Increase</text>
  <rect x="170" y="375" width="160" height="8" rx="4" fill="#10b981" opacity="0.3"/>
  <rect x="170" y="375" width="140" height="8" rx="4" fill="#10b981"/>
  <rect x="450" y="300" width="200" height="120" rx="8" fill="#1e1e3f" stroke="#7c3aed" stroke-width="2"/>
  <text x="550" y="330" font-family="system-ui" font-size="14" fill="#7c3aed" text-anchor="middle" font-weight="bold">-60%</text>
  <text x="550" y="355" font-family="system-ui" font-size="12" fill="#94a3b8" text-anchor="middle">Time to Market</text>
  <rect x="470" y="375" width="160" height="8" rx="4" fill="#7c3aed" opacity="0.3"/>
  <rect x="470" y="375" width="100" height="8" rx="4" fill="#7c3aed"/>
  <rect x="300" y="450" width="200" height="80" rx="8" fill="#1e1e3f" stroke="#06b6d4" stroke-width="2"/>
  <text x="400" y="485" font-family="system-ui" font-size="14" fill="#06b6d4" text-anchor="middle" font-weight="bold">98%</text>
  <text x="400" y="510" font-family="system-ui" font-size="12" fill="#94a3b8" text-anchor="middle">Customer Satisfaction</text>
  <text x="400" y="570" font-family="system-ui" font-size="20" fill="white" text-anchor="middle" font-weight="bold">Client Success Story</text>
</svg>
