<svg xmlns="http://www.w3.org/2000/svg" viewBox="0 0 800 600">
  <defs>
    <linearGradient id="bg" x1="0%" y1="0%" x2="100%" y2="100%">
      <stop offset="0%" style="stop-color:#1a1a2e"/>
      <stop offset="100%" style="stop-color:#16213e"/>
    </linearGradient>
    <linearGradient id="accent" x1="0%" y1="0%" x2="100%" y2="0%">
      <stop offset="0%" style="stop-color:#7c3aed"/>
      <stop offset="100%" style="stop-color:#06b6d4"/>
    </linearGradient>
  </defs>
  <rect width="800" height="600" fill="url(#bg)"/>
  <circle cx="400" cy="180" r="70" fill="url(#accent)" opacity="0.2"/>
  <circle cx="370" cy="160" r="25" fill="#7c3aed" opacity="0.8"/>
  <circle cx="430" cy="160" r="25" fill="#06b6d4" opacity="0.8"/>
  <circle cx="400" cy="210" r="25" fill="#ec4899" opacity="0.8"/>
  <line x1="370" y1="160" x2="430" y2="160" stroke="white" stroke-width="2"/>
  <line x1="370" y1="160" x2="400" y2="210" stroke="white" stroke-width="2"/>
  <line x1="430" y1="160" x2="400" y2="210" stroke="white" stroke-width="2"/>
  <rect x="150" y="280" width="200" height="150" rx="8" fill="#1e1e3f" stroke="#7c3aed" stroke-width="2"/>
  <text x="250" y="310" font-family="system-ui" font-size="12" fill="#94a3b8" text-anchor="middle">Team Activity</text>
  <rect x="170" y="330" width="160" height="80" rx="4" fill="#7c3aed" opacity="0.2"/>
  <rect x="180" y="345" width="80" height="10" rx="2" fill="#7c3aed"/>
  <rect x="180" y="365" width="60" height="10" rx="2" fill="#06b6d4"/>
  <rect x="180" y="385" width="100" height="10" rx="2" fill="#ec4899"/>
  <rect x="450" y="280" width="200" height="150" rx="8" fill="#1e1e3f" stroke="#06b6d4" stroke-width="2"/>
  <text x="550" y="310" font-family="system-ui" font-size="12" fill="#94a3b8" text-anchor="middle">Shared Projects</text>
  <rect x="470" y="330" width="60" height="40" rx="4" fill="#7c3aed" opacity="0.6"/>
  <rect x="540" y="330" width="60" height="40" rx="4" fill="#06b6d4" opacity="0.6"/>
  <rect x="470" y="380" width="60" height="40" rx="4" fill="#06b6d4" opacity="0.6"/>
  <rect x="540" y="380" width="60" height="40" rx="4" fill="#7c3aed" opacity="0.6"/>
  <text x="400" y="500" font-family="system-ui" font-size="24" fill="white" text-anchor="middle" font-weight="bold">Team Workflow</text>
  <text x="400" y="530" font-family="system-ui" font-size="14" fill="#94a3b8" text-anchor="middle">Collaborative Project Management</text>
</svg>
