<svg xmlns="http://www.w3.org/2000/svg" viewBox="0 0 800 600">
  <defs>
    <linearGradient id="bg" x1="0%" y1="0%" x2="100%" y2="100%">
      <stop offset="0%" style="stop-color:#1a1a2e"/>
      <stop offset="100%" style="stop-color:#16213e"/>
    </linearGradient>
    <linearGradient id="accent" x1="0%" y1="0%" x2="100%" y2="0%">
      <stop offset="0%" style="stop-color:#7c3aed"/>
      <stop offset="100%" style="stop-color:#06b6d4"/>
    </linearGradient>
  </defs>
  <rect width="800" height="600" fill="url(#bg)"/>
  <circle cx="400" cy="200" r="80" fill="url(#accent)" opacity="0.2"/>
  <polygon points="380,160 380,240 440,200" fill="#7c3aed"/>
  <circle cx="400" cy="200" r="70" fill="none" stroke="#06b6d4" stroke-width="4"/>
  <rect x="150" y="320" width="500" height="20" rx="4" fill="#1e1e3f" stroke="#7c3aed" stroke-width="1"/>
  <rect x="150" y="320" width="200" height="20" rx="4" fill="#7c3aed"/>
  <circle cx="350" cy="330" r="8" fill="white"/>
  <rect x="150" y="380" width="200" height="100" rx="8" fill="#1e1e3f" stroke="#7c3aed" stroke-width="2"/>
  <text x="250" y="410" font-family="system-ui" font-size="11" fill="#94a3b8" text-anchor="middle">Chapter 1: Introduction</text>
  <rect x="170" y="425" width="160" height="8" rx="2" fill="#7c3aed" opacity="0.6"/>
  <rect x="170" y="440" width="140" height="8" rx="2" fill="#06b6d4" opacity="0.6"/>
  <rect x="170" y="455" width="120" height="8" rx="2" fill="#7c3aed" opacity="0.6"/>
  <rect x="450" y="380" width="200" height="100" rx="8" fill="#1e1e3f" stroke="#06b6d4" stroke-width="2"/>
  <text x="550" y="410" font-family="system-ui" font-size="11" fill="#94a3b8" text-anchor="middle">Chapter 2: Core Concepts</text>
  <rect x="470" y="425" width="160" height="8" rx="2" fill="#06b6d4" opacity="0.6"/>
  <rect x="470" y="440" width="140" height="8" rx="2" fill="#7c3aed" opacity="0.6"/>
  <rect x="470" y="455" width="120" height="8" rx="2" fill="#06b6d4" opacity="0.6"/>
  <text x="400" y="540" font-family="system-ui" font-size="24" fill="white" text-anchor="middle" font-weight="bold">Video Tutorial</text>
  <text x="400" y="570" font-family="system-ui" font-size="14" fill="#94a3b8" text-anchor="middle">Learn SpecTree Step by Step</text>
</svg>
