<svg xmlns="http://www.w3.org/2000/svg" viewBox="0 0 800 600">
  <defs>
    <linearGradient id="bg" x1="0%" y1="0%" x2="100%" y2="100%">
      <stop offset="0%" style="stop-color:#1a1a2e"/>
      <stop offset="100%" style="stop-color:#16213e"/>
    </linearGradient>
    <linearGradient id="accent" x1="0%" y1="0%" x2="100%" y2="0%">
      <stop offset="0%" style="stop-color:#7c3aed"/>
      <stop offset="100%" style="stop-color:#10b981"/>
    </linearGradient>
  </defs>
  <rect width="800" height="600" fill="url(#bg)"/>
  <circle cx="400" cy="180" r="70" fill="url(#accent)" opacity="0.2"/>
  <rect x="340" y="130" width="120" height="100" rx="8" fill="none" stroke="#10b981" stroke-width="3"/>
  <rect x="360" y="150" width="80" height="15" rx="2" fill="#10b981"/>
  <rect x="360" y="175" width="60" height="10" rx="2" fill="#7c3aed" opacity="0.6"/>
  <rect x="360" y="195" width="40" height="10" rx="2" fill="#10b981" opacity="0.6"/>
  <rect x="150" y="300" width="200" height="130" rx="8" fill="#1e1e3f" stroke="#10b981" stroke-width="2"/>
  <text x="250" y="330" font-family="system-ui" font-size="12" fill="#94a3b8" text-anchor="middle">TechCorp Case Study</text>
  <rect x="170" y="350" width="160" height="15" rx="2" fill="#10b981" opacity="0.4"/>
  <rect x="170" y="350" width="140" height="15" rx="2" fill="#10b981"/>
  <text x="250" y="400" font-family="system-ui" font-size="18" fill="#10b981" text-anchor="middle" font-weight="bold">+200%</text>
  <rect x="450" y="300" width="200" height="130" rx="8" fill="#1e1e3f" stroke="#7c3aed" stroke-width="2"/>
  <text x="550" y="330" font-family="system-ui" font-size="12" fill="#94a3b8" text-anchor="middle">StartupXYZ Case Study</text>
  <rect x="470" y="350" width="160" height="15" rx="2" fill="#7c3aed" opacity="0.4"/>
  <rect x="470" y="350" width="120" height="15" rx="2" fill="#7c3aed"/>
  <text x="550" y="400" font-family="system-ui" font-size="18" fill="#7c3aed" text-anchor="middle" font-weight="bold">-50%</text>
  <text x="400" y="500" font-family="system-ui" font-size="24" fill="white" text-anchor="middle" font-weight="bold">Case Studies</text>
  <text x="400" y="530" font-family="system-ui" font-size="14" fill="#94a3b8" text-anchor="middle">Real Customer Success Stories</text>
</svg>
