<svg xmlns="http://www.w3.org/2000/svg" viewBox="0 0 800 600">
  <defs>
    <linearGradient id="bg" x1="0%" y1="0%" x2="100%" y2="100%">
      <stop offset="0%" style="stop-color:#1a1a2e"/>
      <stop offset="100%" style="stop-color:#16213e"/>
    </linearGradient>
    <linearGradient id="accent" x1="0%" y1="0%" x2="100%" y2="0%">
      <stop offset="0%" style="stop-color:#7c3aed"/>
      <stop offset="100%" style="stop-color:#f59e0b"/>
    </linearGradient>
  </defs>
  <rect width="800" height="600" fill="url(#bg)"/>
  <circle cx="400" cy="180" r="70" fill="url(#accent)" opacity="0.2"/>
  <path d="M370 140 L370 220 L430 220 L430 160 L410 140 Z" fill="none" stroke="#f59e0b" stroke-width="3"/>
  <line x1="390" y1="165" x2="420" y2="165" stroke="#f59e0b" stroke-width="2"/>
  <line x1="390" y1="180" x2="420" y2="180" stroke="#7c3aed" stroke-width="2"/>
  <line x1="390" y1="195" x2="410" y2="195" stroke="#f59e0b" stroke-width="2"/>
  <rect x="150" y="300" width="200" height="130" rx="8" fill="#1e1e3f" stroke="#f59e0b" stroke-width="2"/>
  <text x="250" y="330" font-family="system-ui" font-size="12" fill="#94a3b8" text-anchor="middle">API Reference</text>
  <rect x="170" y="350" width="160" height="10" rx="2" fill="#f59e0b" opacity="0.6"/>
  <rect x="170" y="370" width="140" height="10" rx="2" fill="#7c3aed" opacity="0.6"/>
  <rect x="170" y="390" width="120" height="10" rx="2" fill="#f59e0b" opacity="0.6"/>
  <rect x="450" y="300" width="200" height="130" rx="8" fill="#1e1e3f" stroke="#7c3aed" stroke-width="2"/>
  <text x="550" y="330" font-family="system-ui" font-size="12" fill="#94a3b8" text-anchor="middle">Integration Docs</text>
  <rect x="470" y="350" width="160" height="10" rx="2" fill="#7c3aed" opacity="0.6"/>
  <rect x="470" y="370" width="140" height="10" rx="2" fill="#f59e0b" opacity="0.6"/>
  <rect x="470" y="390" width="120" height="10" rx="2" fill="#7c3aed" opacity="0.6"/>
  <text x="400" y="500" font-family="system-ui" font-size="24" fill="white" text-anchor="middle" font-weight="bold">API Documentation</text>
  <text x="400" y="530" font-family="system-ui" font-size="14" fill="#94a3b8" text-anchor="middle">Developer Resources & API Guide</text>
</svg>
