<svg xmlns="http://www.w3.org/2000/svg" viewBox="0 0 800 600">
  <defs>
    <linearGradient id="bg" x1="0%" y1="0%" x2="100%" y2="100%">
      <stop offset="0%" style="stop-color:#1a1a2e"/>
      <stop offset="100%" style="stop-color:#16213e"/>
    </linearGradient>
    <linearGradient id="accent" x1="0%" y1="0%" x2="100%" y2="0%">
      <stop offset="0%" style="stop-color:#7c3aed"/>
      <stop offset="100%" style="stop-color:#06b6d4"/>
    </linearGradient>
  </defs>
  <rect width="800" height="600" fill="url(#bg)"/>
  <circle cx="400" cy="180" r="70" fill="url(#accent)" opacity="0.2"/>
  <rect x="360" y="140" width="80" height="80" rx="8" fill="none" stroke="#7c3aed" stroke-width="3"/>
  <rect x="375" y="155" width="50" height="12" rx="2" fill="#7c3aed"/>
  <rect x="375" y="175" width="40" height="8" rx="2" fill="#06b6d4"/>
  <rect x="375" y="190" width="30" height="8" rx="2" fill="#7c3aed" opacity="0.6"/>
  <rect x="150" y="280" width="200" height="150" rx="8" fill="#1e1e3f" stroke="#7c3aed" stroke-width="2"/>
  <text x="250" y="310" font-family="system-ui" font-size="12" fill="#94a3b8" text-anchor="middle">Getting Started</text>
  <circle cx="180" cy="345" r="15" fill="#7c3aed"/>
  <text x="180" y="350" font-family="system-ui" font-size="12" fill="white" text-anchor="middle">1</text>
  <rect x="205" y="335" width="120" height="20" rx="4" fill="#7c3aed" opacity="0.3"/>
  <circle cx="180" cy="385" r="15" fill="#06b6d4"/>
  <text x="180" y="390" font-family="system-ui" font-size="12" fill="white" text-anchor="middle">2</text>
  <rect x="205" y="375" width="100" height="20" rx="4" fill="#06b6d4" opacity="0.3"/>
  <rect x="450" y="280" width="200" height="150" rx="8" fill="#1e1e3f" stroke="#06b6d4" stroke-width="2"/>
  <text x="550" y="310" font-family="system-ui" font-size="12" fill="#94a3b8" text-anchor="middle">Best Practices</text>
  <rect x="470" y="330" width="160" height="10" rx="2" fill="#7c3aed"/>
  <rect x="470" y="350" width="140" height="10" rx="2" fill="#06b6d4"/>
  <rect x="470" y="370" width="120" height="10" rx="2" fill="#7c3aed" opacity="0.6"/>
  <rect x="470" y="390" width="100" height="10" rx="2" fill="#06b6d4" opacity="0.6"/>
  <text x="400" y="500" font-family="system-ui" font-size="24" fill="white" text-anchor="middle" font-weight="bold">User Guide</text>
  <text x="400" y="530" font-family="system-ui" font-size="14" fill="#94a3b8" text-anchor="middle">Step-by-Step Documentation</text>
</svg>
