<svg xmlns="http://www.w3.org/2000/svg" viewBox="0 0 800 600">
  <defs>
    <linearGradient id="bg" x1="0%" y1="0%" x2="100%" y2="100%">
      <stop offset="0%" style="stop-color:#1a1a2e"/>
      <stop offset="100%" style="stop-color:#16213e"/>
    </linearGradient>
    <linearGradient id="accent" x1="0%" y1="0%" x2="100%" y2="0%">
      <stop offset="0%" style="stop-color:#7c3aed"/>
      <stop offset="100%" style="stop-color:#f59e0b"/>
    </linearGradient>
  </defs>
  <rect width="800" height="600" fill="url(#bg)"/>
  <circle cx="400" cy="180" r="70" fill="url(#accent)" opacity="0.2"/>
  <rect x="360" y="150" width="80" height="60" rx="8" fill="none" stroke="#f59e0b" stroke-width="3"/>
  <text x="400" y="190" font-family="system-ui" font-size="24" fill="#f59e0b" text-anchor="middle">$</text>
  <rect x="150" y="280" width="200" height="150" rx="8" fill="#1e1e3f" stroke="#7c3aed" stroke-width="2"/>
  <text x="250" y="310" font-family="system-ui" font-size="12" fill="#94a3b8" text-anchor="middle">Revenue Forecast</text>
  <path d="M170 400 L210 380 L250 350 L290 320 L330 310" fill="none" stroke="#f59e0b" stroke-width="3"/>
  <circle cx="250" cy="350" r="4" fill="#f59e0b"/>
  <circle cx="290" cy="320" r="4" fill="#f59e0b"/>
  <circle cx="330" cy="310" r="4" fill="#f59e0b"/>
  <rect x="450" y="280" width="200" height="150" rx="8" fill="#1e1e3f" stroke="#f59e0b" stroke-width="2"/>
  <text x="550" y="310" font-family="system-ui" font-size="12" fill="#94a3b8" text-anchor="middle">Budget Tracking</text>
  <rect x="470" y="330" width="160" height="20" rx="4" fill="#7c3aed" opacity="0.4"/>
  <rect x="470" y="330" width="120" height="20" rx="4" fill="#7c3aed"/>
  <rect x="470" y="360" width="160" height="20" rx="4" fill="#f59e0b" opacity="0.4"/>
  <rect x="470" y="360" width="80" height="20" rx="4" fill="#f59e0b"/>
  <rect x="470" y="390" width="160" height="20" rx="4" fill="#10b981" opacity="0.4"/>
  <rect x="470" y="390" width="140" height="20" rx="4" fill="#10b981"/>
  <text x="400" y="500" font-family="system-ui" font-size="24" fill="white" text-anchor="middle" font-weight="bold">Finance Manager</text>
  <text x="400" y="530" font-family="system-ui" font-size="14" fill="#94a3b8" text-anchor="middle">Financial Planning & Analysis</text>
</svg>
