<svg xmlns="http://www.w3.org/2000/svg" viewBox="0 0 800 600">
  <defs>
    <linearGradient id="bg" x1="0%" y1="0%" x2="100%" y2="100%">
      <stop offset="0%" style="stop-color:#1a1a2e"/>
      <stop offset="100%" style="stop-color:#16213e"/>
    </linearGradient>
    <linearGradient id="accent" x1="0%" y1="0%" x2="100%" y2="0%">
      <stop offset="0%" style="stop-color:#7c3aed"/>
      <stop offset="100%" style="stop-color:#ec4899"/>
    </linearGradient>
  </defs>
  <rect width="800" height="600" fill="url(#bg)"/>
  <circle cx="400" cy="180" r="70" fill="url(#accent)" opacity="0.2"/>
  <rect x="360" y="150" width="80" height="60" rx="8" fill="none" stroke="#ec4899" stroke-width="3"/>
  <circle cx="400" cy="180" r="15" fill="#ec4899"/>
  <rect x="150" y="280" width="220" height="150" rx="8" fill="#1e1e3f" stroke="#7c3aed" stroke-width="2"/>
  <text x="260" y="310" font-family="system-ui" font-size="12" fill="#94a3b8" text-anchor="middle">Content Calendar</text>
  <rect x="170" y="330" width="40" height="30" rx="4" fill="#ec4899" opacity="0.6"/>
  <rect x="220" y="330" width="40" height="30" rx="4" fill="#7c3aed" opacity="0.6"/>
  <rect x="270" y="330" width="40" height="30" rx="4" fill="#ec4899" opacity="0.6"/>
  <rect x="320" y="330" width="40" height="30" rx="4" fill="#7c3aed" opacity="0.6"/>
  <rect x="170" y="370" width="40" height="30" rx="4" fill="#7c3aed" opacity="0.6"/>
  <rect x="220" y="370" width="40" height="30" rx="4" fill="#ec4899" opacity="0.6"/>
  <rect x="270" y="370" width="40" height="30" rx="4" fill="#7c3aed" opacity="0.6"/>
  <rect x="320" y="370" width="40" height="30" rx="4" fill="#ec4899" opacity="0.6"/>
  <rect x="430" y="280" width="220" height="150" rx="8" fill="#1e1e3f" stroke="#ec4899" stroke-width="2"/>
  <text x="540" y="310" font-family="system-ui" font-size="12" fill="#94a3b8" text-anchor="middle">Engagement</text>
  <rect x="450" y="330" width="30" height="80" fill="#ec4899" opacity="0.4"/>
  <rect x="450" y="370" width="30" height="40" fill="#ec4899"/>
  <rect x="490" y="330" width="30" height="80" fill="#7c3aed" opacity="0.4"/>
  <rect x="490" y="350" width="30" height="60" fill="#7c3aed"/>
  <rect x="530" y="330" width="30" height="80" fill="#ec4899" opacity="0.4"/>
  <rect x="530" y="360" width="30" height="50" fill="#ec4899"/>
  <rect x="570" y="330" width="30" height="80" fill="#7c3aed" opacity="0.4"/>
  <rect x="570" y="340" width="30" height="70" fill="#7c3aed"/>
  <rect x="610" y="330" width="30" height="80" fill="#ec4899" opacity="0.4"/>
  <rect x="610" y="355" width="30" height="55" fill="#ec4899"/>
  <text x="400" y="500" font-family="system-ui" font-size="24" fill="white" text-anchor="middle" font-weight="bold">Content Creator</text>
  <text x="400" y="530" font-family="system-ui" font-size="14" fill="#94a3b8" text-anchor="middle">Content Strategy & Creation</text>
</svg>
