<svg xmlns="http://www.w3.org/2000/svg" viewBox="0 0 800 600">
  <defs>
    <linearGradient id="bg" x1="0%" y1="0%" x2="100%" y2="100%">
      <stop offset="0%" style="stop-color:#1a1a2e"/>
      <stop offset="100%" style="stop-color:#16213e"/>
    </linearGradient>
    <linearGradient id="accent" x1="0%" y1="0%" x2="100%" y2="0%">
      <stop offset="0%" style="stop-color:#7c3aed"/>
      <stop offset="100%" style="stop-color:#06b6d4"/>
    </linearGradient>
  </defs>
  <rect width="800" height="600" fill="url(#bg)"/>
  <circle cx="400" cy="180" r="70" fill="url(#accent)" opacity="0.2"/>
  <rect x="360" y="140" width="80" height="80" rx="8" fill="none" stroke="#06b6d4" stroke-width="3"/>
  <path d="M380 180 L420 180 M400 160 L400 200" stroke="#7c3aed" stroke-width="4"/>
  <rect x="150" y="280" width="200" height="150" rx="8" fill="#1e1e3f" stroke="#7c3aed" stroke-width="2"/>
  <text x="250" y="310" font-family="system-ui" font-size="12" fill="#94a3b8" text-anchor="middle">Architecture</text>
  <rect x="170" y="330" width="60" height="40" rx="4" fill="#7c3aed" opacity="0.4"/>
  <rect x="250" y="330" width="60" height="40" rx="4" fill="#06b6d4" opacity="0.4"/>
  <line x1="230" y1="350" x2="250" y2="350" stroke="#7c3aed" stroke-width="2"/>
  <rect x="170" y="380" width="140" height="30" rx="4" fill="url(#accent)" opacity="0.3"/>
  <rect x="450" y="280" width="200" height="150" rx="8" fill="#1e1e3f" stroke="#06b6d4" stroke-width="2"/>
  <text x="550" y="310" font-family="system-ui" font-size="12" fill="#94a3b8" text-anchor="middle">Code Review</text>
  <rect x="470" y="330" width="160" height="10" rx="2" fill="#7c3aed" opacity="0.6"/>
  <rect x="470" y="350" width="140" height="10" rx="2" fill="#06b6d4" opacity="0.6"/>
  <rect x="470" y="370" width="120" height="10" rx="2" fill="#7c3aed" opacity="0.6"/>
  <rect x="470" y="390" width="100" height="10" rx="2" fill="#06b6d4" opacity="0.6"/>
  <text x="400" y="500" font-family="system-ui" font-size="24" fill="white" text-anchor="middle" font-weight="bold">Tech Lead</text>
  <text x="400" y="530" font-family="system-ui" font-size="14" fill="#94a3b8" text-anchor="middle">Architecture & Technical Leadership</text>
</svg>
