<svg xmlns="http://www.w3.org/2000/svg" viewBox="0 0 800 600">
  <defs>
    <linearGradient id="bg" x1="0%" y1="0%" x2="100%" y2="100%">
      <stop offset="0%" style="stop-color:#1a1a2e"/>
      <stop offset="100%" style="stop-color:#16213e"/>
    </linearGradient>
    <linearGradient id="accent" x1="0%" y1="0%" x2="100%" y2="0%">
      <stop offset="0%" style="stop-color:#7c3aed"/>
      <stop offset="100%" style="stop-color:#06b6d4"/>
    </linearGradient>
  </defs>
  <rect width="800" height="600" fill="url(#bg)"/>
  <circle cx="400" cy="180" r="70" fill="url(#accent)" opacity="0.2"/>
  <rect x="360" y="150" width="80" height="60" rx="8" fill="none" stroke="#7c3aed" stroke-width="3"/>
  <rect x="375" y="165" width="50" height="30" rx="4" fill="#06b6d4"/>
  <rect x="150" y="280" width="200" height="150" rx="8" fill="#1e1e3f" stroke="#7c3aed" stroke-width="2"/>
  <text x="250" y="310" font-family="system-ui" font-size="12" fill="#94a3b8" text-anchor="middle">Workflow Steps</text>
  <rect x="170" y="330" width="160" height="20" rx="4" fill="#7c3aed"/>
  <text x="250" y="345" font-family="system-ui" font-size="10" fill="white" text-anchor="middle">Research</text>
  <rect x="170" y="360" width="160" height="20" rx="4" fill="#06b6d4"/>
  <text x="250" y="375" font-family="system-ui" font-size="10" fill="white" text-anchor="middle">Design</text>
  <rect x="170" y="390" width="160" height="20" rx="4" fill="#10b981"/>
  <text x="250" y="405" font-family="system-ui" font-size="10" fill="white" text-anchor="middle">Implement</text>
  <rect x="450" y="280" width="200" height="150" rx="8" fill="#1e1e3f" stroke="#06b6d4" stroke-width="2"/>
  <text x="550" y="310" font-family="system-ui" font-size="12" fill="#94a3b8" text-anchor="middle">Progress</text>
  <circle cx="550" cy="380" r="50" fill="none" stroke="#7c3aed" stroke-width="8" opacity="0.3"/>
  <path d="M550 330 A50 50 0 1 1 500 380" fill="none" stroke="#7c3aed" stroke-width="8" stroke-linecap="round"/>
  <text x="550" y="390" font-family="system-ui" font-size="18" fill="#7c3aed" text-anchor="middle" font-weight="bold">75%</text>
  <text x="400" y="500" font-family="system-ui" font-size="24" fill="white" text-anchor="middle" font-weight="bold">Feature Planning</text>
  <text x="400" y="530" font-family="system-ui" font-size="14" fill="#94a3b8" text-anchor="middle">Plan Features with AI Assistance</text>
</svg>
