<svg viewBox="0 0 100 100" xmlns="http://www.w3.org/2000/svg">
  <defs>
    <!-- Circle Gradients -->
    <radialGradient id="circleGradient" cx="50%" cy="50%" r="50%">
      <stop offset="0%" style="stop-color:#60a5fa"/>
      <stop offset="100%" style="stop-color:#3b82f6"/>
    </radialGradient>
    
    <radialGradient id="nodeGradient" cx="50%" cy="50%" r="50%">
      <stop offset="0%" style="stop-color:#93c5fd"/>
      <stop offset="100%" style="stop-color:#60a5fa"/>
    </radialGradient>
  </defs>
  
  <!-- Main Icon -->
  <g transform="translate(15, 15)">
    <!-- Central Circle -->
    <circle cx="35" cy="35" r="35" fill="url(#circleGradient)"/>
    
    <!-- Dot Grid Pattern -->
    <g>
      <circle cx="25" cy="25" r="2" fill="#ffffff"/>
      <circle cx="35" cy="25" r="2" fill="#ffffff"/>
      <circle cx="45" cy="25" r="2" fill="#ffffff"/>
      <circle cx="25" cy="35" r="2" fill="#ffffff"/>
      <circle cx="35" cy="35" r="3" fill="#ffffff"/>
      <circle cx="45" cy="35" r="2" fill="#ffffff"/>
      <circle cx="25" cy="45" r="2" fill="#ffffff"/>
      <circle cx="35" cy="45" r="2" fill="#ffffff"/>
      <circle cx="45" cy="45" r="2" fill="#ffffff"/>
    </g>
    
    <!-- Orbital System -->
    <g fill="none" stroke="#3b82f6" stroke-width="1.5">
      <ellipse cx="35" cy="35" rx="45" ry="20" transform="rotate(45 35 35)"/>
      <ellipse cx="35" cy="35" rx="45" ry="20" transform="rotate(-45 35 35)"/>
    </g>
    
    <!-- Nodes -->
    <g>
      <circle cx="35" cy="0" r="6" fill="url(#nodeGradient)"/>
      <circle cx="70" cy="35" r="6" fill="url(#nodeGradient)"/>
      <circle cx="35" cy="70" r="6" fill="url(#nodeGradient)"/>
      <circle cx="0" cy="35" r="6" fill="url(#nodeGradient)"/>
      
      <circle cx="35" cy="0" r="2" fill="#ffffff"/>
      <circle cx="70" cy="35" r="2" fill="#ffffff"/>
      <circle cx="35" cy="70" r="2" fill="#ffffff"/>
      <circle cx="0" cy="35" r="2" fill="#ffffff"/>
    </g>
  </g>
</svg>
